<svg width="198" height="53" viewBox="0 0 198 53" fill="none" xmlns="http://www.w3.org/2000/svg">
<g clip-path="url(#clip0_401_125)">
<path d="M80.9919 12.4549C84.5542 13.2605 85.4574 15.3692 85.4574 17.3593C85.4574 20.4399 83.1303 22.7381 78.4271 22.7381C73.486 22.7381 71.2778 20.2736 71.2778 18.4253C71.2778 17.4779 71.9665 16.8141 72.9162 16.8141C75.0301 16.8141 74.4835 19.8947 78.4271 19.8947C80.4466 19.8947 81.563 18.781 81.563 17.6442C81.563 16.9572 81.2309 16.1993 79.9001 15.8667L75.5056 14.7531C71.9665 13.8521 71.3256 11.9097 71.3256 10.0858C71.3256 6.29502 74.8415 4.87332 78.1428 4.87332C81.1831 4.87332 84.77 6.57988 84.77 8.85357C84.77 9.82544 83.9392 10.3939 82.9882 10.3939C81.1831 10.3939 81.5152 7.85851 77.8818 7.85851C76.0767 7.85851 75.0792 8.6873 75.0792 9.87313C75.0792 11.059 76.5044 11.4366 77.7397 11.7215L80.9932 12.4562L80.9919 12.4549Z" fill="#4E4E4E"/>
<path d="M99.6382 20.9131C99.6382 21.9558 99.1627 22.6428 98.0709 22.6428C96.9791 22.6428 96.5036 21.9558 96.5036 20.9131V20.4632H96.4558C95.4815 21.7431 94.223 22.6428 92.2513 22.6428C90.1606 22.6428 87.8813 21.6001 87.8813 18.0942V11.3646C87.8813 10.4404 88.2612 9.63483 89.6154 9.63483C90.9695 9.63483 91.3494 10.4404 91.3494 11.3646V17.4071C91.3494 18.8056 92.0381 19.8007 93.5343 19.8007C94.745 19.8007 96.1702 18.8056 96.1702 17.0759V11.3659C96.1702 10.4417 96.5501 9.63612 97.9042 9.63612C99.2584 9.63612 99.6382 10.4417 99.6382 11.3659V20.9144V20.9131Z" fill="#4E4E4E"/>
<path d="M102.394 11.3646C102.394 10.3218 103.012 9.63483 104.033 9.63483C105.054 9.63483 105.671 10.3218 105.671 11.3646V11.8144H105.719C106.622 10.4404 108.142 9.63483 109.899 9.63483C111.086 9.63483 112.583 10.18 113.225 11.8144C114.199 10.4636 115.434 9.63483 117.311 9.63483C119.71 9.63483 121.634 10.7253 121.634 13.829V20.9144C121.634 21.8385 121.254 22.6441 119.9 22.6441C118.546 22.6441 118.166 21.8385 118.166 20.9144V14.7068C118.166 13.4746 117.619 12.4795 116.265 12.4795C114.911 12.4795 113.747 13.5455 113.747 15.1567V20.9144C113.747 21.8385 113.367 22.6441 112.013 22.6441C110.659 22.6441 110.279 21.8385 110.279 20.9144V14.7068C110.279 13.4746 109.732 12.4795 108.378 12.4795C107.024 12.4795 105.86 13.5455 105.86 15.1567V20.9144C105.86 21.8385 105.48 22.6441 104.126 22.6441C102.772 22.6441 102.392 21.8385 102.392 20.9144V11.3646H102.394Z" fill="#4E4E4E"/>
<path d="M124.39 11.3646C124.39 10.3218 125.007 9.63483 126.028 9.63483C127.049 9.63483 127.667 10.3218 127.667 11.3646V11.8144H127.714C128.618 10.4404 130.137 9.63483 131.894 9.63483C133.082 9.63483 134.578 10.18 135.22 11.8144C136.194 10.4636 137.43 9.63483 139.306 9.63483C141.705 9.63483 143.629 10.7253 143.629 13.829V20.9144C143.629 21.8385 143.249 22.6441 141.895 22.6441C140.541 22.6441 140.161 21.8385 140.161 20.9144V14.7068C140.161 13.4746 139.615 12.4795 138.261 12.4795C136.906 12.4795 135.742 13.5455 135.742 15.1567V20.9144C135.742 21.8385 135.362 22.6441 134.008 22.6441C132.654 22.6441 132.274 21.8385 132.274 20.9144V14.7068C132.274 13.4746 131.728 12.4795 130.374 12.4795C129.019 12.4795 127.855 13.5455 127.855 15.1567V20.9144C127.855 21.8385 127.475 22.6441 126.121 22.6441C124.767 22.6441 124.387 21.8385 124.387 20.9144V11.3646H124.39Z" fill="#4E4E4E"/>
<path d="M148.309 4.87219C149.307 4.87219 150.115 5.67778 150.115 6.67284C150.115 7.66791 149.307 8.4735 148.309 8.4735C147.312 8.4735 146.504 7.66791 146.504 6.67284C146.504 5.67778 147.312 4.87219 148.309 4.87219ZM146.575 11.3646C146.575 10.4404 146.955 9.63483 148.309 9.63483C149.664 9.63483 150.043 10.4404 150.043 11.3646V20.9131C150.043 21.8372 149.664 22.6428 148.309 22.6428C146.955 22.6428 146.575 21.8372 146.575 20.9131V11.3646Z" fill="#4E4E4E"/>
<path d="M153.891 12.2179H153.297C152.323 12.2179 151.92 11.8389 151.92 11.081C151.92 10.3231 152.323 9.94418 153.297 9.94418H153.891V7.83547C153.891 6.69863 154.58 6.10571 155.625 6.10571C156.671 6.10571 157.359 6.69863 157.359 7.83547V9.94418H158.405C159.427 9.94418 159.972 10.2522 159.972 11.081C159.972 11.9098 159.426 12.2179 158.405 12.2179H157.359V19.1369C157.359 19.6576 157.645 19.9425 158.263 19.9425H158.761C159.521 19.9425 159.973 20.3691 159.973 21.1038C159.973 22.0989 159.118 22.6441 157.455 22.6441C154.937 22.6441 153.893 21.6014 153.893 19.5636V12.2179H153.891Z" fill="#4E4E4E"/>
<path d="M72.0376 30.7013C72.0376 29.54 72.7974 28.7589 73.9848 28.7589C75.1723 28.7589 75.932 29.5413 75.932 30.7013V35.5348H83.0102V30.7013C83.0102 29.54 83.7699 28.7589 84.9574 28.7589C86.1448 28.7589 86.9046 29.5413 86.9046 30.7013V44.4917C86.9046 45.653 86.1448 46.4341 84.9574 46.4341C83.7699 46.4341 83.0102 45.6517 83.0102 44.4917V38.8049H75.932V44.4917C75.932 45.653 75.1723 46.4341 73.9848 46.4341C72.7974 46.4341 72.0376 45.6517 72.0376 44.4917V30.7013Z" fill="#4E4E4E"/>
<path d="M93.0356 40.5823C93.0356 42.4062 94.2231 43.7338 96.2427 43.7338C98.8553 43.7338 98.8553 42.0272 100.257 42.0272C101.088 42.0272 101.682 42.7374 101.682 43.378C101.682 45.4635 98.3333 46.4341 96.2427 46.4341C91.3972 46.4341 89.5676 43.1641 89.5676 40.1557C89.5676 36.1277 92.0136 33.4261 96.1238 33.4261C100.234 33.4261 102.394 36.245 102.394 39.0884C102.394 40.273 102.038 40.581 100.875 40.581H93.0369L93.0356 40.5823ZM99.1163 38.5922C98.9264 37.0042 97.7389 35.8442 96.1948 35.8442C94.4608 35.8442 93.4155 36.9101 93.0356 38.5922H99.1163Z" fill="#4E4E4E"/>
<path d="M116.146 42.7851C116.146 44.23 116.503 44.5626 116.503 45.1078C116.503 45.8902 115.766 46.4341 114.936 46.4341C113.439 46.4341 112.941 45.4867 112.893 44.4208C111.539 45.9134 109.971 46.4341 108.142 46.4341C106.17 46.4341 104.223 45.0833 104.223 42.9037C104.223 40.0371 106.408 39.2315 109.068 38.9235L111.182 38.6863C112.013 38.5909 112.678 38.4014 112.678 37.4064C112.678 36.4113 111.657 35.9847 110.493 35.9847C107.928 35.9847 107.857 37.8807 106.479 37.8807C105.6 37.8807 105.006 37.2646 105.006 36.5544C105.006 35.1804 106.953 33.4261 110.517 33.4261C113.842 33.4261 116.146 34.4921 116.146 36.9797V42.7851ZM112.678 40.2975C112.298 40.6532 111.585 40.7718 111.182 40.8427L109.923 41.0322C108.475 41.2461 107.691 41.696 107.691 42.7387C107.691 43.5211 108.427 44.1604 109.615 44.1604C111.515 44.1604 112.678 42.9282 112.678 41.6483V40.2975Z" fill="#4E4E4E"/>
<path d="M119.33 30.4886C119.33 29.3518 120.019 28.7589 121.064 28.7589C122.109 28.7589 122.798 29.3518 122.798 30.4886V44.7057C122.798 45.8425 122.109 46.4354 121.064 46.4354C120.019 46.4354 119.33 45.8425 119.33 44.7057V30.4886Z" fill="#4E4E4E"/>
<path d="M126.646 36.0092H126.051C125.077 36.0092 124.674 35.6302 124.674 34.8723C124.674 34.1144 125.078 33.7355 126.051 33.7355H126.646V31.6268C126.646 30.4899 127.335 29.897 128.38 29.897C129.425 29.897 130.114 30.4899 130.114 31.6268V33.7355H131.159C132.18 33.7355 132.726 34.0435 132.726 34.8723C132.726 35.7011 132.18 36.0092 131.159 36.0092H130.114V42.9282C130.114 43.4489 130.399 43.7338 131.017 43.7338H131.516C132.276 43.7338 132.728 44.1604 132.728 44.8951C132.728 45.8902 131.872 46.4354 130.209 46.4354C127.691 46.4354 126.647 45.3927 126.647 43.3548V36.0092H126.646Z" fill="#4E4E4E"/>
<path d="M134.532 30.4886C134.532 29.3518 135.22 28.7589 136.266 28.7589C137.311 28.7589 138 29.3518 138 30.4886V35.2513H138.048C138.736 34.3516 139.948 33.4274 141.919 33.4274C144.009 33.4274 146.289 34.4702 146.289 37.9761V44.7057C146.289 45.6298 145.909 46.4354 144.555 46.4354C143.2 46.4354 142.821 45.6298 142.821 44.7057V38.6631C142.821 37.2646 142.132 36.2695 140.636 36.2695C139.425 36.2695 138 37.2646 138 38.9944V44.7044C138 45.6285 137.62 46.4341 136.266 46.4341C134.912 46.4341 134.532 45.6285 134.532 44.7044V30.4873V30.4886Z" fill="#4E4E4E"/>
<path d="M154.889 33.4261C157.787 33.4261 159.949 35.0605 159.949 36.6717C159.949 37.6667 159.212 38.1643 158.333 38.1643C156.695 38.1643 157.288 36.1265 154.794 36.1265C153.44 36.1265 151.848 37.0506 151.848 40.1789C151.848 42.3353 152.87 43.7325 154.77 43.7325C157.193 43.7325 156.671 41.5052 158.499 41.5052C159.378 41.5052 159.947 42.1445 159.947 42.8315C159.947 44.3473 158.237 46.4328 154.674 46.4328C150.399 46.4328 148.38 43.8034 148.38 40.1776C148.38 36.1973 150.636 33.4248 154.889 33.4248V33.4261Z" fill="#4E4E4E"/>
<path d="M173.321 42.7851C173.321 44.23 173.677 44.5626 173.677 45.1078C173.677 45.8902 172.941 46.4341 172.11 46.4341C170.614 46.4341 170.115 45.4867 170.067 44.4208C168.713 45.9134 167.146 46.4341 165.316 46.4341C163.344 46.4341 161.397 45.0833 161.397 42.9037C161.397 40.0371 163.582 39.2315 166.243 38.9235L168.357 38.6863C169.187 38.5909 169.853 38.4014 169.853 37.4064C169.853 36.4113 168.831 35.9847 167.668 35.9847C165.103 35.9847 165.032 37.8807 163.653 37.8807C162.775 37.8807 162.18 37.2646 162.18 36.5544C162.18 35.1804 164.127 33.4261 167.691 33.4261C171.017 33.4261 173.321 34.4921 173.321 36.9797V42.7851ZM169.853 40.2975C169.473 40.6532 168.76 40.7718 168.357 40.8427L167.098 41.0322C165.65 41.2461 164.865 41.696 164.865 42.7387C164.865 43.5211 165.602 44.1604 166.789 44.1604C168.69 44.1604 169.853 42.9282 169.853 41.6483V40.2975Z" fill="#4E4E4E"/>
<path d="M176.503 35.0373C176.503 33.9945 177.192 33.4261 178.071 33.4261C178.949 33.4261 179.638 33.9945 179.638 35.0373V36.3636H179.686C180.09 34.9187 180.873 33.4261 182.559 33.4261C183.652 33.4261 184.46 34.1363 184.46 35.1082C184.46 36.3881 183.605 36.8379 182.749 36.8379H182.132C180.73 36.8379 179.97 37.8098 179.97 40.6764V44.7044C179.97 45.6285 179.59 46.4341 178.236 46.4341C176.882 46.4341 176.502 45.6285 176.502 44.7044V35.0373H176.503Z" fill="#4E4E4E"/>
<path d="M188.641 40.5823C188.641 42.4062 189.829 43.7338 191.848 43.7338C194.461 43.7338 194.461 42.0272 195.863 42.0272C196.694 42.0272 197.288 42.7374 197.288 43.378C197.288 45.4635 193.939 46.4341 191.848 46.4341C187.003 46.4341 185.173 43.1641 185.173 40.1557C185.173 36.1277 187.619 33.4261 191.729 33.4261C195.84 33.4261 198 36.245 198 39.0884C198 40.273 197.643 40.581 196.481 40.581H188.643L188.641 40.5823ZM194.722 38.5922C194.532 37.0042 193.345 35.8442 191.801 35.8442C190.067 35.8442 189.021 36.9101 188.641 38.5922H194.722Z" fill="#4E4E4E"/>
<path d="M35.3223 0.0077299C35.821 0.0244861 36.3236 0.0683102 36.8146 0.140491C39.687 0.560686 41.9275 1.9347 43.4742 4.22515C45.066 6.5852 45.8168 9.814 45.6824 13.4798C44.6745 9.00197 41.6781 5.98327 37.2824 5.35684C36.803 5.28853 36.3107 5.24599 35.8223 5.22923C25.218 4.87993 14.9599 16.7034 12.8745 27.5073C12.5217 29.3324 12.4106 31.0919 12.5463 32.7365C12.5527 32.868 12.5592 32.9995 12.5695 33.131C12.6987 34.9419 13.0825 36.6871 13.6988 38.2932C11.4118 35.3222 10.4996 30.8843 11.2348 25.8407C12.1354 19.6602 15.3411 12.9912 19.8092 8.00046C24.5771 2.67455 30.0879 -0.164988 35.3223 0.0077299Z" fill="#E3EDFF"/>
<path d="M45.1579 42.1471L42.7093 31.8472L38.8679 15.6916L21.4115 13.5107L10.6534 12.1663C4.87641 11.4445 0 14.6604 0 19.6409C0 24.9371 5.43848 29.7836 11.8499 30.138L23.7063 30.7941L25.1871 41.9512C26.005 48.1097 31.7329 53.2152 37.652 52.9922C43.2817 52.7809 46.4991 47.7888 45.1579 42.1458V42.1471Z" fill="url(#paint0_linear_401_125)"/>
<path d="M57.0944 24.8972C55.7493 20.828 51.5099 17.2692 47.4359 16.7601L38.8679 15.6903L37.0396 8.00175C36.1829 4.40045 32.1011 0.971862 27.7467 0.172718C23.2282 -0.65736 19.8287 1.58411 20.3313 5.37618L21.4115 13.5107L22.7243 23.4007C23.2566 27.4068 27.3694 30.9978 31.738 31.2401L42.708 31.8472L51.9311 32.3576C56.2933 32.5986 58.504 29.1675 57.0931 24.8985L57.0944 24.8972Z" fill="url(#paint1_linear_401_125)"/>
<path d="M20.918 48.0646C20.3262 48.0453 19.7318 47.9925 19.1491 47.9074C15.7431 47.4099 13.0878 45.7806 11.2543 43.0648C9.36655 40.2678 8.47758 36.4397 8.63651 32.0934C9.83171 37.4012 13.3837 40.9806 18.5935 41.723C19.162 41.8042 19.7448 41.8545 20.3249 41.8738C32.8971 42.2876 45.0571 28.2716 47.5302 15.4634C47.9489 13.3006 48.0794 11.2138 47.9192 9.26362C47.9127 9.10895 47.9037 8.9517 47.892 8.79574C47.7396 6.64836 47.2835 4.5809 46.5534 2.67584C49.2643 6.19723 50.347 11.4587 49.4749 17.4368C48.4076 24.7631 44.6075 32.6695 39.3099 38.5858C33.6556 44.9016 27.1227 48.267 20.9167 48.0634L20.918 48.0646Z" fill="url(#paint2_linear_401_125)"/>
</g>
<defs>
<linearGradient id="paint0_linear_401_125" x1="17.4719" y1="37.7441" x2="38.1353" y2="17.2366" gradientUnits="userSpaceOnUse">
<stop stop-color="#01B19B"/>
<stop offset="1" stop-color="#2067BF"/>
</linearGradient>
<linearGradient id="paint1_linear_401_125" x1="42.6615" y1="12.8778" x2="25.5755" y2="28.0722" gradientUnits="userSpaceOnUse">
<stop stop-color="#78D1EF"/>
<stop offset="1" stop-color="#00ADEF"/>
</linearGradient>
<linearGradient id="paint2_linear_401_125" x1="56.2817" y1="11.3053" x2="12.7433" y2="43.4801" gradientUnits="userSpaceOnUse">
<stop stop-color="#4EA5CF"/>
<stop offset="1" stop-color="#002E96"/>
</linearGradient>
<clipPath id="clip0_401_125">
<rect width="198" height="53" fill="white"/>
</clipPath>
</defs>
</svg>
