<svg width="58" height="53" viewBox="0 0 58 53" fill="none" xmlns="http://www.w3.org/2000/svg">
<path d="M35.3223 0.0077299C35.821 0.0244861 36.3236 0.0683102 36.8146 0.140491C39.687 0.560686 41.9275 1.9347 43.4742 4.22515C45.066 6.5852 45.8168 9.814 45.6824 13.4798C44.6745 9.00197 41.6781 5.98326 37.2824 5.35684C36.803 5.28853 36.3107 5.24599 35.8223 5.22923C25.218 4.87993 14.9599 16.7034 12.8745 27.5073C12.5217 29.3324 12.4106 31.0919 12.5463 32.7365C12.5527 32.868 12.5592 32.9995 12.5695 33.131C12.6987 34.9419 13.0825 36.6871 13.6988 38.2932C11.4118 35.3222 10.4996 30.8843 11.2348 25.8407C12.1354 19.6602 15.3411 12.9912 19.8092 8.00046C24.5771 2.67455 30.0879 -0.164988 35.3223 0.0077299Z" fill="#E3EDFF"/>
<path d="M45.1579 42.1471L42.7093 31.8472L38.8679 15.6916L21.4115 13.5107L10.6534 12.1663C4.87641 11.4445 0 14.6604 0 19.6409C0 24.9371 5.43848 29.7836 11.8499 30.138L23.7063 30.7941L25.1871 41.9512C26.005 48.1097 31.7329 53.2152 37.652 52.9922C43.2817 52.7809 46.4991 47.7888 45.1579 42.1458V42.1471Z" fill="url(#paint0_linear_401_143)"/>
<path d="M57.0944 24.8972C55.7493 20.828 51.5099 17.2692 47.4359 16.7601L38.8679 15.6903L37.0396 8.00175C36.1829 4.40045 32.1011 0.971862 27.7467 0.172718C23.2282 -0.65736 19.8287 1.58411 20.3313 5.37618L21.4115 13.5107L22.7243 23.4007C23.2566 27.4068 27.3694 30.9978 31.738 31.2401L42.708 31.8472L51.9311 32.3576C56.2933 32.5986 58.504 29.1675 57.0931 24.8985L57.0944 24.8972Z" fill="url(#paint1_linear_401_143)"/>
<path d="M20.918 48.0646C20.3262 48.0453 19.7318 47.9925 19.1491 47.9074C15.7431 47.4099 13.0878 45.7806 11.2543 43.0648C9.36655 40.2678 8.47758 36.4397 8.63651 32.0934C9.83171 37.4012 13.3837 40.9806 18.5935 41.723C19.162 41.8042 19.7448 41.8545 20.3249 41.8738C32.8971 42.2876 45.0571 28.2716 47.5302 15.4634C47.9489 13.3006 48.0794 11.2138 47.9192 9.26362C47.9127 9.10895 47.9037 8.9517 47.892 8.79574C47.7396 6.64836 47.2835 4.5809 46.5534 2.67584C49.2643 6.19723 50.347 11.4587 49.4749 17.4368C48.4076 24.7631 44.6075 32.6695 39.3099 38.5858C33.6556 44.9016 27.1227 48.267 20.9167 48.0634L20.918 48.0646Z" fill="url(#paint2_linear_401_143)"/>
<defs>
<linearGradient id="paint0_linear_401_143" x1="17.4719" y1="37.7441" x2="38.1353" y2="17.2366" gradientUnits="userSpaceOnUse">
<stop stop-color="#01B19B"/>
<stop offset="1" stop-color="#2067BF"/>
</linearGradient>
<linearGradient id="paint1_linear_401_143" x1="42.6615" y1="12.8778" x2="25.5755" y2="28.0722" gradientUnits="userSpaceOnUse">
<stop stop-color="#78D1EF"/>
<stop offset="1" stop-color="#00ADEF"/>
</linearGradient>
<linearGradient id="paint2_linear_401_143" x1="56.2817" y1="11.3053" x2="12.7433" y2="43.4801" gradientUnits="userSpaceOnUse">
<stop stop-color="#4EA5CF"/>
<stop offset="1" stop-color="#002E96"/>
</linearGradient>
</defs>
</svg>
